<?xml version="1.0" standalone="no"?>
<!DOCTYPE svg PUBLIC "-//W3C//DTD SVG 20010904//EN"
 "http://www.w3.org/TR/2001/REC-SVG-20010904/DTD/svg10.dtd">
<svg version="1.0" xmlns="http://www.w3.org/2000/svg"
 width="1838.000000pt" height="350.000000pt" viewBox="0 0 1838.000000 350.000000"
 preserveAspectRatio="xMidYMid meet">
<metadata>
Created by potrace 1.15, written by Peter Selinger 2001-2017
</metadata>
<g transform="translate(0.000000,350.000000) scale(0.100000,-0.100000)"
fill="#000000" stroke="none">
<path d="M2030 1905 l0 -1515 200 0 200 0 2 1067 3 1068 645 -604 c355 -332
675 -633 711 -668 l66 -64 38 21 c21 12 63 37 92 56 29 19 56 34 59 34 3 0 37
20 75 45 38 25 72 45 75 45 3 0 40 23 83 50 43 28 81 50 85 50 4 0 33 17 64
38 31 21 71 46 87 54 17 8 91 52 165 98 74 45 155 94 180 108 25 14 64 38 87
53 23 16 45 29 48 29 4 0 38 20 76 45 38 25 73 45 77 45 4 0 41 23 82 50 41
27 79 50 83 50 5 0 27 13 50 29 23 15 62 39 87 53 25 14 83 49 130 77 l85 52
3 -350 c1 -193 1 -509 0 -702 l-3 -352 -423 397 c-233 218 -431 396 -441 396
-20 0 -271 -246 -271 -266 0 -7 327 -319 726 -693 l727 -681 43 0 44 0 0 485
0 485 65 0 c84 0 83 1 345 -222 43 -38 82 -68 85 -68 4 0 40 -29 80 -65 40
-36 76 -65 80 -65 4 0 42 -31 85 -70 43 -38 81 -70 85 -70 4 0 40 -29 80 -65
40 -36 77 -65 81 -65 4 0 18 -10 31 -22 l23 -22 80 84 80 83 0 -36 0 -37 205
0 205 0 -2 483 -3 482 -2 -477 -3 -478 -195 0 -195 0 2 1105 c2 608 0 1105 -4
1105 -5 0 -8 -434 -8 -965 l0 -966 -42 33 c-24 18 -61 49 -83 68 -22 20 -65
55 -95 78 -30 23 -95 76 -145 117 -49 41 -125 102 -167 135 -42 33 -80 64 -83
70 -5 8 57 56 93 70 7 3 45 35 85 70 81 72 149 156 193 240 16 30 34 60 41 68
21 22 60 163 73 262 14 105 8 216 -17 325 -17 75 -50 167 -62 175 -5 3 -19 25
-31 50 -39 78 -98 153 -178 227 -79 74 -214 163 -286 189 -119 44 -146 52
-207 64 -86 17 -99 12 -99 -40 0 -22 -4 -40 -8 -40 -5 0 -14 -46 -21 -102 -7
-57 -15 -119 -18 -139 l-5 -36 46 -6 c136 -19 307 -125 383 -239 40 -59 83
-159 83 -192 0 -8 5 -16 11 -18 15 -5 16 -201 0 -206 -6 -2 -11 -12 -11 -23 0
-25 -44 -123 -82 -182 -39 -61 -173 -169 -245 -196 -46 -18 -77 -21 -189 -21
l-134 0 0 755 c0 602 -3 755 -13 755 -7 0 -36 -16 -64 -35 -29 -19 -55 -35
-58 -35 -4 0 -38 -20 -76 -45 -38 -25 -72 -45 -76 -45 -3 0 -41 -22 -84 -50
-43 -27 -80 -50 -83 -50 -3 0 -37 -20 -76 -45 -39 -25 -73 -45 -76 -45 -3 0
-40 -22 -82 -48 -120 -75 -183 -113 -232 -140 -24 -13 -56 -32 -70 -41 -14
-10 -45 -30 -70 -43 -25 -14 -106 -63 -180 -108 -74 -45 -155 -94 -180 -108
-25 -14 -64 -38 -87 -53 -23 -16 -45 -29 -50 -29 -4 0 -42 -23 -83 -50 -41
-27 -79 -50 -83 -50 -5 0 -27 -13 -50 -29 -44 -29 -92 -57 -216 -123 -40 -21
-92 -51 -114 -65 -35 -22 -43 -24 -61 -13 -37 23 -140 118 -1004 927 -466 436
-853 793 -859 793 -10 0 -13 -310 -13 -1515z"/>
<path d="M3120 3355 c-13 -14 -28 -25 -33 -25 -6 0 -38 -26 -72 -57 -34 -32
-84 -77 -111 -100 l-49 -42 45 -44 c25 -24 173 -176 330 -337 157 -161 339
-348 405 -415 66 -67 180 -185 254 -261 74 -77 143 -145 153 -152 17 -13 26
-8 83 45 35 32 98 87 139 123 42 36 76 70 76 76 0 6 -74 87 -165 180 -598 611
-745 762 -871 890 -78 79 -145 144 -151 144 -5 0 -20 -11 -33 -25z"/>
<path d="M9320 2040 l0 -770 888 2 887 3 -882 2 -883 3 0 760 0 760 883 3 882
2 -887 3 -888 2 0 -770z"/>
<path d="M11977 2803 c370 -2 976 -2 1345 0 370 1 68 2 -672 2 -740 0 -1042
-1 -673 -2z"/>
<path d="M270 1850 l0 -770 345 0 345 0 0 70 0 70 -270 0 -270 0 0 700 0 700
-75 0 -75 0 0 -770z"/>
<path d="M15895 1515 c0 -611 1 -859 2 -552 2 307 2 807 0 1110 -1 304 -2 53
-2 -558z"/>
<path d="M11735 1415 c0 -566 1 -797 2 -512 2 285 2 749 0 1030 -1 282 -2 49
-2 -518z"/>
<path d="M12128 1415 c-2 -564 0 -1025 5 -1025 4 0 7 461 7 1025 0 564 -2
1025 -5 1025 -3 0 -6 -461 -7 -1025z"/>
<path d="M900 2208 c-18 -68 -36 -125 -40 -128 -6 -5 -98 -321 -135 -470 -9
-36 -20 -67 -24 -70 -8 -5 -51 -188 -51 -214 0 -13 14 -16 74 -16 l73 0 32
132 c18 73 36 135 40 138 4 3 28 86 55 185 26 99 51 184 56 189 4 4 11 -1 15
-13 3 -11 12 -27 20 -34 7 -8 46 -79 85 -158 40 -79 76 -146 80 -149 14 -9
121 -232 108 -224 -7 4 -32 20 -55 36 -23 15 -45 28 -49 28 -4 0 -36 18 -70
41 -72 47 -82 45 -127 -29 l-29 -46 24 -18 c13 -9 26 -18 30 -18 6 0 55 -30
250 -152 42 -26 80 -48 83 -48 3 0 33 -18 65 -40 33 -22 68 -43 77 -47 10 -4
50 -28 90 -55 40 -26 79 -48 88 -48 16 0 21 26 6 32 -5 2 -41 68 -81 148 -40
80 -76 147 -80 150 -4 3 -40 70 -80 150 -40 80 -76 147 -79 150 -4 3 -40 68
-80 145 -41 77 -77 142 -81 145 -4 3 -40 70 -80 150 -40 80 -76 147 -80 150
-4 3 -22 33 -39 68 -17 34 -37 62 -45 62 -8 0 -25 -44 -46 -122z"/>
<path d="M9707 693 c254 -2 672 -2 930 0 257 1 50 2 -462 2 -511 0 -722 -1
-468 -2z"/>
</g>
</svg>
