<?xml version="1.0" standalone="no"?>
<!DOCTYPE svg PUBLIC "-//W3C//DTD SVG 20010904//EN"
 "http://www.w3.org/TR/2001/REC-SVG-20010904/DTD/svg10.dtd">
<svg version="1.0" xmlns="http://www.w3.org/2000/svg"
 width="57.000000pt" height="44.000000pt" viewBox="0 0 57.000000 44.000000"
 preserveAspectRatio="xMidYMid meet">

<g transform="translate(0.000000,44.000000) scale(0.100000,-0.100000)"
fill="#000000" stroke="none">
<path d="M327 335 c-55 -52 -102 -95 -105 -95 -4 0 -53 41 -110 90 -57 50
-105 90 -107 90 -3 0 -5 -92 -5 -205 l0 -205 40 0 39 0 3 137 3 136 72 -62 72
-62 48 43 c26 23 58 51 71 62 l22 19 0 -50 c0 -49 -1 -50 -46 -75 l-46 -25 99
-55 c150 -85 139 -81 170 -65 l26 14 -79 46 c-43 25 -85 49 -92 54 -9 6 7 19
55 45 37 20 77 44 88 52 19 14 19 14 -6 26 -22 10 -33 9 -65 -8 l-39 -20 3
104 c2 57 0 104 -5 104 -4 -1 -52 -43 -106 -95z"/>
</g>
</svg>
